<?xml version="1.0" encoding="UTF-8"?>
<svg id="Layer_1" data-name="Layer 1" xmlns="http://www.w3.org/2000/svg" viewBox="0 0 202.24 201.78">
  <defs>
    <style>
      .cls-1 {
        fill: #111a00;
        stroke-width: 0px;
      }
    </style>
  </defs>
  <g>
    <path class="cls-1" d="M103.6,53.92l-37.58,49.53c-.44.58-.03,1.42.71,1.42h27.57c.42,0,.79-.3.87-.71l10.02-49.53c.19-.92-1.01-1.46-1.58-.71Z"/>
    <path class="cls-1" d="M98.47,143.81l37.58-49.53c.44-.58.03-1.42-.71-1.42h-27.57c-.42,0-.79.3-.87.71l-10.02,49.53c-.19.92,1.01,1.46,1.58.71Z"/>
  </g>
  <path class="cls-1" d="M101.03,44.02c30.29,0,54.84,24.55,54.84,54.84s-24.55,54.84-54.84,54.84-54.84-24.55-54.84-54.84,24.55-54.84,54.84-54.84M101.03,35.6c-34.88,0-63.27,28.38-63.27,63.27s28.38,63.27,63.27,63.27,63.27-28.38,63.27-63.27-28.38-63.27-63.27-63.27h0Z"/>
</svg>